<svg xmlns="http://www.w3.org/2000/svg" viewBox="0 0 24 24" aria-hidden="true" focusable="false">
  <circle cx="12" cy="12" r="12" fill="#1DB954" />
  <path d="M17.7 16.9c-.2.3-.6.4-.9.2-2.5-1.5-5.7-1.9-9.3-1.1-.4.1-.7-.1-.8-.5-.1-.4.1-.7.5-.8 4-.9 7.4-.5 10.3 1.3.3.2.4.6.2.9zm1.4-3.1c-.3.4-.8.5-1.3.3-2.9-1.8-7.3-2.3-10.7-1.2-.4.1-.8-.1-1-.5-.1-.4.1-.8.5-1 3.9-1.2 8.8-.6 12.1 1.5.4.3.5.8.3 1.3zm.1-3.2c-3.5-2.1-9.2-2.3-12.5-1.2-.5.2-1.1-.1-1.2-.6-.2-.5.1-1.1.6-1.2 3.8-1.2 10.1-.9 14.1 1.5.4.3.6.9.3 1.3-.3.4-.9.6-1.3.2z" fill="#FFFFFF" />
</svg>
